<?xml version="1.0" encoding="UTF-8" standalone="no"?>
<svg
   xmlns:dc="http://purl.org/dc/elements/1.1/"
   xmlns:cc="http://creativecommons.org/ns#"
   xmlns:rdf="http://www.w3.org/1999/02/22-rdf-syntax-ns#"
   xmlns:svg="http://www.w3.org/2000/svg"
   xmlns="http://www.w3.org/2000/svg"
   width="32.0px"
   height="32.0px"
   viewBox="0 0 32.0 32.0"
   version="1.1"
   id="SVGRoot">
  <defs
     id="defs73" />
  <metadata
     id="metadata76">
    <rdf:RDF>
      <cc:Work
         rdf:about="">
        <dc:format>image/svg+xml</dc:format>
        <dc:type
           rdf:resource="http://purl.org/dc/dcmitype/StillImage" />
        <dc:title></dc:title>
      </cc:Work>
    </rdf:RDF>
  </metadata>
  <g
     id="layer1">
    <path
       style="fill:none;stroke:#000000;stroke-width:1px;stroke-linecap:butt;stroke-linejoin:miter;stroke-opacity:1"
       d="M 5,1 1,6 m 0,0 24.001276,23.925769"
       id="path14009" />
    <path
       style="fill:none;stroke:#000000;stroke-width:1px;stroke-linecap:butt;stroke-linejoin:miter;stroke-opacity:1"
       d="M 25,30 29.862635,25.001276 4.9244937,1.2626907"
       id="path14011" />
    <path
       style="fill:none;stroke:#000000;stroke-width:1px;stroke-linecap:butt;stroke-linejoin:miter;stroke-opacity:1"
       d="M 2,26 5,30 30,5 26,1"
       id="path14013" />
    <path
       style="fill:none;stroke:#000000;stroke-width:1px;stroke-linecap:butt;stroke-linejoin:miter;stroke-opacity:1"
       d="M 26,1 2,26"
       id="path14015" />
    <path
       style="fill:#000000;stroke-width:0.0631345"
       d="m 13.51,17.736083 -1.455762,-1.428058 0.879228,-0.923703 c 0.483576,-0.508037 1.331892,-1.392477 1.885146,-1.965423 l 1.005918,-1.04172 0.994689,0.947018 c 0.547079,0.52086 1.240093,1.179262 1.540032,1.463115 l 0.545342,0.516097 -1.925215,1.930366 c -1.058869,1.061702 -1.945106,1.930367 -1.969416,1.930367 -0.02431,0 -0.699294,-0.642627 -1.499962,-1.428059 z"
       id="path14017" />
    <path
       style="fill:#000000;stroke-width:0.0631345"
       d="M 3.8526628,27.589868 2.6923205,26.040339 3.288437,25.42751 c 0.327864,-0.337055 2.2659176,-2.352973 4.3067857,-4.479818 2.0408683,-2.126844 3.7301823,-3.86699 3.7540293,-3.86699 0.02385,0 0.689392,0.64649 1.478986,1.436644 l 1.435625,1.436643 -4.5930278,4.592704 c -2.526165,2.525988 -4.607608,4.592705 -4.6254287,4.592705 -0.017821,0 -0.5545555,-0.697288 -1.1927437,-1.54953 z"
       id="path14019" />
    <path
       style="fill:#000000;stroke-width:0.0631345"
       d="M 6.491158,10.719898 1.7173132,5.9374566 3.1965084,4.1065551 C 4.0100658,3.0995593 4.7263001,2.2075905 4.7881404,2.1244021 L 4.900577,1.9731507 9.962549,6.7923046 c 2.784085,2.6505348 5.054262,4.8390304 5.044838,4.8633244 -0.02843,0.07329 -3.661203,3.84671 -3.703329,3.84671 -0.02148,0 -2.1872851,-2.152099 -4.8129,-4.782441 z"
       id="path14021" />
    <path
       style="fill:#000000;stroke-width:0.0631345"
       d="m 18.128157,13.095901 c -0.843452,-0.802786 -1.525193,-1.483445 -1.514979,-1.512577 0.02585,-0.07372 9.345173,-9.7811794 9.390099,-9.7811794 0.02005,0 0.753537,0.7175037 1.62998,1.5944526 l 1.593532,1.5944525 -4.782541,4.7822308 -4.782541,4.7822305 z"
       id="path14023" />
    <path
       style="fill:#000000;stroke-width:0.0631345"
       d="m 20.403927,24.578652 -4.624715,-4.625871 1.95212,-1.951358 1.952121,-1.951359 0.693069,0.657372 c 0.381188,0.361554 2.498113,2.375383 4.704276,4.475175 l 4.011208,3.817804 -0.293424,0.317508 c -0.161383,0.17463 -1.07564,1.120554 -2.031682,2.102054 l -1.738257,1.784546 z"
       id="path14025" />
  </g>
</svg>
